<?xml version="1.0" encoding="UTF-8" standalone="no" ?>
<!DOCTYPE svg PUBLIC "-//W3C//DTD SVG 1.1//EN" "http://www.w3.org/Graphics/SVG/1.1/DTD/svg11.dtd">
<svg xmlns="http://www.w3.org/2000/svg" xmlns:xlink="http://www.w3.org/1999/xlink" version="1.1" width="1080" height="1080" viewBox="0 0 1080 1080" xml:space="preserve">
<desc>Created with Fabric.js 5.2.4</desc>
<defs>
</defs>
<g transform="matrix(1 0 0 1 540 540)" id="1286f377-2d9d-4449-9d8e-656c5b67ecd3"  >
<rect style="stroke: none; stroke-width: 1; stroke-dasharray: none; stroke-linecap: butt; stroke-dashoffset: 0; stroke-linejoin: miter; stroke-miterlimit: 4; fill: rgb(255,255,255); fill-rule: nonzero; opacity: 1; visibility: hidden;" vector-effect="non-scaling-stroke"  x="-540" y="-540" rx="0" ry="0" width="1080" height="1080" />
</g>
<g transform="matrix(1 0 0 1 540 540)" id="7b46d593-fff6-4355-a66b-025711a57fc3"  >
</g>
<g transform="matrix(1 0 0 1 540 540)"  >
<g style="" vector-effect="non-scaling-stroke"   >
		<g transform="matrix(1.56 0 0 1.56 0 -102.44)"  >
<path style="stroke: none; stroke-width: 1; stroke-dasharray: none; stroke-linecap: butt; stroke-dashoffset: 0; stroke-linejoin: miter; stroke-miterlimit: 4; fill: rgb(255,255,255); fill-rule: nonzero; opacity: 1;" vector-effect="non-scaling-stroke"  transform=" translate(-256, -190.44)" d="M 387.076 175.279 L 265.94 15.996 C 263.577 12.89 259.901 11.067 256 11.067 C 252.099 11.067 248.422 12.89 246.06 15.996 L 124.924 175.28 C 121.852 179.32 121.53 184.817 124.111 189.188 C 126.691 193.559 131.667 195.934 136.681 195.19299999999998 L 207.29700000000003 184.80899999999997 L 207.29700000000003 357.668 C 207.29700000000003 364.565 212.88900000000004 369.81100000000004 219.78500000000003 369.81100000000004 L 294.71200000000005 369.81100000000004 C 301.60800000000006 369.81100000000004 307.20000000000005 364.56500000000005 307.20000000000005 357.668 L 307.20000000000005 184.873 L 375.26500000000004 195.185 C 380.283 195.944 385.28100000000006 193.584 387.87600000000003 189.21 C 390.47 184.837 390.154 179.326 387.076 175.279 z M 296.583 158.003 C 292.985 157.456 289.329 158.509 286.57000000000005 160.88099999999997 C 283.81000000000006 163.25199999999998 282.22400000000005 166.70999999999998 282.22400000000005 170.34899999999996 L 282.22400000000005 344.83399999999995 L 232.27300000000005 344.83399999999995 L 232.27300000000005 170.351 C 232.27300000000005 166.722 230.69300000000004 163.273 227.94700000000006 160.9 C 225.20200000000006 158.529 221.56400000000005 157.47 217.96800000000007 157.995 L 163.33600000000007 166.028 L 256 44.184 L 348.547 165.87599999999998 L 296.583 158.003 z" stroke-linecap="round" />
</g>
		<g transform="matrix(1.56 0 0 1.56 0 80.27)"  >
<path style="stroke: none; stroke-width: 1; stroke-dasharray: none; stroke-linecap: butt; stroke-dashoffset: 0; stroke-linejoin: miter; stroke-miterlimit: 4; fill: rgb(255,255,255); fill-rule: nonzero; opacity: 1;" vector-effect="non-scaling-stroke"  transform=" translate(-256, -307.37)" d="M 474.537 113.811 L 427.08299999999997 113.811 C 420.18699999999995 113.811 414.59499999999997 119.74600000000001 414.59499999999997 126.643 L 414.59499999999997 176.594 C 414.59499999999997 183.49099999999999 420.18699999999995 188.737 427.08299999999997 188.737 L 437.073 188.737 L 437.073 426.005 L 74.927 426.005 L 74.927 188.738 L 84.917 188.738 C 91.813 188.738 97.405 183.492 97.405 176.595 L 97.405 126.644 C 97.405 119.747 91.813 113.81200000000001 84.917 113.81200000000001 L 37.463 113.81200000000001 C 16.806 113.811 0 130.962 0 151.619 L 0 463.81399999999996 C 0 484.47099999999995 16.806 500.933 37.463 500.933 L 474.536 500.933 C 495.193 500.933 511.999 484.472 511.999 463.81399999999996 L 511.999 151.619 C 512 130.962 495.194 113.811 474.537 113.811 z M 487.024 463.815 C 487.024 470.701 481.422 475.95799999999997 474.536 475.95799999999997 L 37.463 475.95799999999997 C 30.577 475.95799999999997 24.975 470.70099999999996 24.975 463.81499999999994 L 24.975 151.619 C 24.975 144.733 30.577 138.787 37.463 138.787 L 72.429 138.787 L 72.429 163.763 L 62.439 163.763 C 55.543 163.763 49.951 169.698 49.951 176.595 L 49.951 438.83900000000006 C 49.951 445.73600000000005 55.543 450.9820000000001 62.439 450.9820000000001 L 449.56100000000004 450.9820000000001 C 456.45700000000005 450.9820000000001 462.04900000000004 445.7360000000001 462.04900000000004 438.83900000000006 L 462.04900000000004 176.595 C 462.04900000000004 169.698 456.45700000000005 163.763 449.56100000000004 163.763 L 439.571 163.763 L 439.571 138.787 L 474.53700000000003 138.787 C 481.42300000000006 138.787 487.02500000000003 144.734 487.02500000000003 151.619 L 487.02500000000003 463.815 z" stroke-linecap="round" />
</g>
</g>
</g>
</svg>