<?xml version="1.0" encoding="UTF-8" standalone="no"?>
<!DOCTYPE svg PUBLIC "-//W3C//DTD SVG 1.1//EN" "http://www.w3.org/Graphics/SVG/1.1/DTD/svg11.dtd">
<svg xmlns="http://www.w3.org/2000/svg" xml:space="preserve" width="1080" height="1080">
	<path d="M387.076 175.279 265.94 15.996a12.4888 12.4888 0 0 0-9.94-4.929c-3.901 0-7.578 1.823-9.94 4.929L124.924 175.28c-3.072 4.04-3.394 9.537-.813 13.908 2.58 4.371 7.556 6.746 12.57 6.005l70.616-10.384v172.859c0 6.897 5.592 12.143 12.488 12.143h74.927c6.896 0 12.488-5.246 12.488-12.143V184.873l68.065 10.312c5.018.759 10.016-1.601 12.611-5.975 2.594-4.373 2.278-9.884-.8-13.931zm-90.493-17.276c-3.598-.547-7.254.506-10.013 2.878-2.76 2.371-4.346 5.829-4.346 9.468v174.485h-49.951V170.351c0-3.629-1.58-7.078-4.326-9.451-2.745-2.371-6.383-3.43-9.979-2.905l-54.632 8.033L256 44.184l92.547 121.692-51.964-7.873z" style="stroke:none;stroke-width:1;stroke-dasharray:none;stroke-linecap:butt;stroke-dashoffset:0;stroke-linejoin:miter;stroke-miterlimit:4;fill:#ccc;fill-rule:nonzero;opacity:1" transform="matrix(1.56 0 0 1.56 140.64 140.4736)" vector-effect="non-scaling-stroke"/>
	<path d="M474.537 113.811h-47.454c-6.896 0-12.488 5.935-12.488 12.832v49.951c0 6.897 5.592 12.143 12.488 12.143h9.99v237.268H74.927V188.738h9.99c6.896 0 12.488-5.246 12.488-12.143v-49.951c0-6.897-5.592-12.832-12.488-12.832H37.463C16.806 113.811 0 130.962 0 151.619v312.195c0 20.657 16.806 37.119 37.463 37.119h437.073c20.657 0 37.463-16.461 37.463-37.119V151.619c.001-20.657-16.805-37.808-37.462-37.808zm12.487 350.004c0 6.886-5.602 12.143-12.488 12.143H37.463c-6.886 0-12.488-5.257-12.488-12.143V151.619c0-6.886 5.602-12.832 12.488-12.832h34.966v24.976h-9.99c-6.896 0-12.488 5.935-12.488 12.832v262.244c0 6.897 5.592 12.143 12.488 12.143h387.122c6.896 0 12.488-5.246 12.488-12.143V176.595c0-6.897-5.592-12.832-12.488-12.832h-9.99v-24.976h34.966c6.886 0 12.488 5.947 12.488 12.832v312.196z" style="stroke:none;stroke-width:1;stroke-dasharray:none;stroke-linecap:butt;stroke-dashoffset:0;stroke-linejoin:miter;stroke-miterlimit:4;fill:#ccc;fill-rule:nonzero;opacity:1" transform="matrix(1.56 0 0 1.56 140.64 140.7728)" vector-effect="non-scaling-stroke"/>
</svg>
